HIERARCHY
ROOT Hips
{
 OFFSET 0.000000 0.000000 0.000000
 CHANNELS 6 Xposition Yposition Zposition Yrotation Xrotation Zrotation
 JOINT Chest
 {
  OFFSET 0.000000 9.585900 0.002600
  CHANNELS 3 Yrotation Xrotation Zrotation
  JOINT Chest2
  {
   OFFSET 0.000000 9.601200 -0.005300
   CHANNELS 3 Yrotation Xrotation Zrotation
   JOINT Chest3
   {
    OFFSET 0.000000 9.561800 0.000000
    CHANNELS 3 Yrotation Xrotation Zrotation
    JOINT Chest4
    {
     OFFSET 0.000000 9.552100 0.000000
     CHANNELS 3 Yrotation Xrotation Zrotation
     JOINT Neck
     {
      OFFSET 0.000000 14.453000 0.000000
      CHANNELS 3 Yrotation Xrotation Zrotation
      JOINT Head
      {
       OFFSET 0.000000 8.936500 -0.011300
       CHANNELS 3 Yrotation Xrotation Zrotation
       End Site
       {
        OFFSET 0.000000 17.073600 -0.006000
       }
      }
     }
     JOINT RightCollar
     {
      OFFSET -2.921100 9.558500 0.000000
      CHANNELS 3 Yrotation Xrotation Zrotation
      JOINT RightShoulder
      {
       OFFSET -13.519700 0.000000 0.000000
       CHANNELS 3 Yrotation Xrotation Zrotation
       JOINT RightElbow
       {
        OFFSET 0.000000 -29.696600 0.000000
        CHANNELS 3 Yrotation Xrotation Zrotation
        JOINT RightWrist
        {
         OFFSET 0.000000 -24.004700 0.000000
         CHANNELS 3 Yrotation Xrotation Zrotation
         End Site
         {
          OFFSET 0.000000 -17.728500 0.000000
         }
        }
       }
      }
     }
     JOINT LeftCollar
     {
      OFFSET 2.921100 9.558500 0.000000
      CHANNELS 3 Yrotation Xrotation Zrotation
      JOINT LeftShoulder
      {
       OFFSET 13.519700 0.000000 0.000000
       CHANNELS 3 Yrotation Xrotation Zrotation
       JOINT LeftElbow
       {
        OFFSET 0.000000 -29.696600 0.000000
        CHANNELS 3 Yrotation Xrotation Zrotation
        JOINT LeftWrist
        {
         OFFSET 0.000000 -24.004700 0.000000
         CHANNELS 3 Yrotation Xrotation Zrotation
         End Site
         {
          OFFSET 0.000000 -17.728500 0.000000
         }
        }
       }
      }
     }
    }
   }
  }
 }
 JOINT RightHip
 {
  OFFSET -7.771700 -0.012900 -0.001300
  CHANNELS 3 Yrotation Xrotation Zrotation
  JOINT RightKnee
  {
   OFFSET 0.000000 -40.869800 0.001200
   CHANNELS 3 Yrotation Xrotation Zrotation
   JOINT RightAnkle
   {
    OFFSET 0.000000 -39.717900 0.002100
    CHANNELS 3 Yrotation Xrotation Zrotation
    JOINT RightToe
    {
     OFFSET 0.000000 -4.965400 11.033500
     CHANNELS 3 Yrotation Xrotation Zrotation
     End Site
     {
      OFFSET 0.000000 -1.423100 5.872300
     }
    }
   }
  }
 }
 JOINT LeftHip
 {
  OFFSET 7.771700 -0.012900 -0.001300
  CHANNELS 3 Yrotation Xrotation Zrotation
  JOINT LeftKnee
  {
   OFFSET 0.000000 -40.869800 0.001200
   CHANNELS 3 Yrotation Xrotation Zrotation
   JOINT LeftAnkle
   {
    OFFSET 0.000000 -39.717900 0.002100
    CHANNELS 3 Yrotation Xrotation Zrotation
    JOINT LeftToe
    {
     OFFSET 0.000000 -4.965400 11.033500
     CHANNELS 3 Yrotation Xrotation Zrotation
     End Site
     {
      OFFSET 0.000000 -1.423100 5.872300
     }
    }
   }
  }
 }
}
MOTION
Frames: 16
Frame Time: 0.008333
0.000000 85.388000 0.000000 0.000000 -5.767877 0.000000 0.000000 11.653817 0.000000 0.000000 -5.885947 0.000000 0.000000 -0.000000 0.000000 0.000000 -0.000000 0.000000 0.000000 12.528835 0.000000 0.000000 0.711642 0.000000 0.000000 -0.000000 0.000000 0.000000 0.000000 -90.000000 0.000000 -2.309062 0.000000 0.000000 2.309062 0.000000 0.000000 -0.000000 0.000000 0.000000 -0.000000 90.000000 0.000000 -2.309062 0.000000 0.000000 2.309062 0.000000 0.000000 8.520406 0.000000 0.000000 1.905762 0.000000 -0.000000 -4.658285 0.000000 0.000000 -0.000000 0.000000 0.000000 8.520406 0.000000 0.000000 1.905762 0.000000 -0.000000 -4.658285 0.000000 0.000000 -0.000000 0.000000
-0.572324 50.143262 35.943666 172.868135 -30.654731 -5.456949 8.031968 21.655411 7.689275 0.954048 3.276698 0.762615 1.578523 5.295295 1.273968 6.199171 18.358026 5.232489 0.599179 18.505898 3.605271 -0.056177 -1.383857 6.423398 6.088153 -5.371730 -6.915259 22.136607 -36.048156 -24.296403 112.204257 -51.092925 -132.198152 1.621973 -6.812802 -17.725107 -11.934372 -0.677744 1.289536 2.180659 -5.248519 -1.823063 -103.995388 -62.126264 109.592347 10.515730 -22.802675 4.998744 0.907006 -50.820211 7.672384 -70.285832 83.489570 -58.550028 0.528280 -6.817478 -5.085111 -0.231075 0.858441 -0.087738 -12.122028 -54.261495 17.106039 -141.123402 87.937555 -147.963224 0.463785 -9.143688 4.426855 -0.050091 -0.164501 -0.048294
-0.572275 50.140656 35.938987 172.893343 -30.650997 -5.439872 8.020400 21.672127 7.682622 0.966166 3.296865 0.776341 1.573507 5.298744 1.270753 6.192583 18.361289 5.228301 0.641063 18.543270 3.632979 0.000545 -1.340957 6.448807 6.079020 -5.296606 -6.862338 22.030382 -35.927338 -24.129753 112.508658 -51.125989 -132.376426 1.549867 -7.034171 -17.838046 -11.929863 -0.665971 1.280591 2.150524 -5.297957 -1.816916 -104.009984 -62.171285 109.599127 10.520840 -22.860065 5.030716 0.923465 -50.849131 7.641178 -70.617762 83.482812 -58.885332 0.500487 -6.750306 -5.102592 -0.207101 0.802014 -0.062920 -12.120335 -54.267183 17.068494 -140.396726 87.919023 -147.249790 0.486005 -9.137258 4.440123 -0.050251 -0.167266 -0.050434
-0.568261 50.137660 35.934793 172.904256 -30.644388 -5.435631 8.014081 21.672462 7.680085 0.976153 3.313242 0.789387 1.574193 5.306709 1.272878 6.176793 18.347203 5.213516 0.700930 18.605180 3.671941 0.057456 -1.300392 6.468426 6.075699 -5.191696 -6.790229 21.919374 -35.785286 -23.949770 112.803739 -51.153150 -132.541690 1.480192 -7.297625 -17.907670 -11.916590 -0.640686 1.279068 2.113785 -5.331301 -1.821813 -103.997393 -62.185311 109.601596 10.541778 -22.928995 5.063211 0.926653 -50.862720 7.632242 -70.741865 83.479391 -59.008009 0.504595 -6.731990 -5.107872 -0.211932 0.815631 -0.064157 -12.131008 -54.275210 17.067156 -139.576752 87.891118 -146.439653 0.515932 -9.135240 4.452956 -0.051046 -0.169257 -0.052565
-0.565093 50.134943 35.928990 172.921612 -30.643747 -5.426320 8.014156 21.695892 7.692111 0.961996 3.298252 0.772185 1.574390 5.309322 1.273625 6.197660 18.390955 5.242982 0.737886 18.621002 3.683086 0.111244 -1.257112 6.483915 6.043915 -5.119334 -6.739493 21.806762 -35.629173 -23.759378 113.075549 -51.168771 -132.680233 1.415709 -7.600052 -17.947660 -11.932110 -0.687780 1.263524 2.080027 -5.341663 -1.830843 -103.955077 -62.185659 109.586677 10.566670 -23.008458 5.098766 0.935485 -50.869256 7.611144 -70.921675 83.473779 -59.189012 0.516869 -6.722751 -5.109961 -0.223247 0.832498 -0.066299 -12.124402 -54.277821 17.042961 -139.089891 87.869869 -145.961357 0.534988 -9.135597 4.467374 -0.051762 -0.169198 -0.052668
-0.562747 50.132792 35.921736 172.946544 -30.650118 -5.414798 8.037247 21.738440 7.728728 0.943207 3.288461 0.754776 1.575414 5.317848 1.276938 6.197384 18.403554 5.250775 0.762424 18.635388 3.693234 0.164052 -1.208023 6.494466 5.987794 -5.038177 -6.681112 21.684625 -35.457867 -23.558700 113.325492 -51.170334 -132.793012 1.369050 -7.929750 -17.973026 -11.948132 -0.696255 1.255013 2.028629 -5.382882 -1.849777 -103.905852 -62.176234 109.574445 10.594256 -23.088189 5.136175 0.948239 -50.872961 7.590868 -71.194433 83.462446 -59.465453 0.499036 -6.713842 -5.114278 -0.211064 0.841385 -0.059733 -12.122648 -54.270754 17.013004 -139.081482 87.864736 -145.968469 0.533491 -9.138254 4.476984 -0.051533 -0.166882 -0.047442
-0.559488 50.129912 35.916415 172.958292 -30.646080 -5.405350 8.037987 21.746078 7.736382 0.947895 3.299355 0.758098 1.576571 5.323891 1.279746 6.199128 18.411883 5.258420 0.758475 18.628616 3.685756 0.244001 -1.133434 6.500467 5.927290 -4.945871 -6.617678 21.550070 -35.268257 -23.348223 113.547647 -51.152954 -132.876691 1.342734 -8.269628 -17.992268 -11.958119 -0.698970 1.248516 1.967112 -5.415915 -1.875412 -103.854635 -62.161588 109.570406 10.605939 -23.129321 5.153122 0.957292 -50.878492 7.572849 -71.304264 83.460459 -59.578853 0.517371 -6.720992 -5.105846 -0.235408 0.872086 -0.074078 -12.121181 -54.275787 17.005339 -139.075359 87.854793 -145.979753 0.526226 -9.135553 4.495244 -0.051395 -0.170674 -0.047019
-0.555565 50.128001 35.910416 172.975816 -30.649539 -5.406027 8.030649 21.755306 7.749494 0.955831 3.308243 0.761384 1.576723 5.328264 1.282788 6.206575 18.426953 5.300753 0.775238 18.645764 3.663136 0.286102 -1.103660 6.482374 5.853016 -4.850169 -6.582848 21.413054 -35.060538 -23.133907 113.729617 -51.117866 -132.919881 1.327409 -8.605270 -18.007897 -11.962748 -0.697615 1.227056 1.909837 -5.457616 -1.917458 -103.820766 -62.150828 109.574252 10.614867 -23.168232 5.167177 0.957880 -50.878578 7.571529 -71.458408 83.450038 -59.737017 0.523752 -6.717825 -5.105391 -0.241907 0.889803 -0.075695 -12.125840 -54.273647 16.998450 -139.252705 87.848473 -146.165716 0.516067 -9.132464 4.511446 -0.050301 -0.179077 -0.053480
-0.553155 50.126348 35.904549 172.993715 -30.654149 -5.403142 8.016619 21.763089 7.757778 0.957574 3.313698 0.761271 1.575817 5.331593 1.286381 6.194134 18.423600 5.294874 0.820154 18.672140 3.677856 0.286043 -1.101975 6.462638 5.786158 -4.734114 -6.501905 21.274913 -34.831595 -22.916584 113.873122 -51.068609 -132.923922 1.317101 -8.924267 -18.024514 -11.959529 -0.695645 1.219383 1.893421 -5.465400 -1.930189 -103.824683 -62.152282 109.587224 10.671436 -23.268855 5.206787 0.976566 -50.883206 7.559786 -71.672636 83.435279 -59.950521 0.516743 -6.707504 -5.105808 -0.237307 0.896695 -0.071301 -12.117041 -54.271210 16.978371 -139.316334 87.841669 -146.235659 0.510738 -9.130056 4.526376 -0.048557 -0.180585 -0.051255
-0.551766 50.124578 35.899754 173.012955 -30.654921 -5.401745 7.998438 21.765779 7.765943 0.958196 3.315370 0.763599 1.572599 5.333319 1.289575 6.182986 18.425559 5.286735 0.847003 18.676225 3.679060 0.301219 -1.082833 6.444623 5.712622 -4.620996 -6.422362 21.118894 -34.580632 -22.690847 113.996203 -51.010825 -132.905972 1.308917 -9.217856 -18.038534 -11.953483 -0.692938 1.210190 1.847438 -5.472509 -1.958544 -103.786938 -62.132587 109.586418 10.713629 -23.312605 5.210637 0.987660 -50.886295 7.544965 -71.804532 83.428258 -60.082447 0.520395 -6.706713 -5.102143 -0.243070 0.928312 -0.083655 -12.107662 -54.274333 16.955009 -139.451526 87.838859 -146.371864 0.500933 -9.124639 4.539936 -0.047334 -0.182488 -0.049940
-0.549262 50.123006 35.896235 173.026683 -30.654269 -5.411703 7.986759 21.764922 7.786740 0.958877 3.317038 0.766239 1.569265 5.334973 1.292831 6.171704 18.428662 5.296392 0.862100 18.666369 3.654389 0.420531 -1.090051 6.352362 5.639643 -4.513204 -6.362257 20.937960 -34.307856 -22.457272 114.113912 -50.956799 -132.880907 1.301363 -9.481708 -18.039661 -11.948352 -0.681391 1.202838 1.795492 -5.504073 -2.022118 -103.708758 -62.101710 109.552543 10.771945 -23.366485 5.201772 0.988807 -50.889884 7.552216 -71.898589 83.416709 -60.170901 0.513058 -6.704315 -5.106998 -0.234931 0.937048 -0.081197 -12.085570 -54.283150 16.941491 -139.545970 87.827401 -146.456022 0.489481 -9.115237 4.562093 -0.043480 -0.188392 -0.051126
-0.550401 50.122480 35.891091 173.056306 -30.665438 -5.413540 7.956059 21.780665 7.789720 0.951488 3.317714 0.789602 1.557568 5.338963 1.300967 6.132158 18.438372 5.320016 0.886892 18.645209 3.566450 0.489634 -1.139718 6.257012 5.599816 -4.412025 -6.353595 20.735749 -34.008986 -22.217587 114.235334 -50.913303 -132.853485 1.293368 -9.711378 -18.024235 -11.912675 -0.699213 1.123455 1.782897 -5.517381 -2.038772 -103.759342 -62.144604 109.572360 10.779312 -23.433660 5.219309 0.993605 -50.880006 7.537014 -71.979252 83.421268 -60.258013 0.503479 -6.710775 -5.097223 -0.240143 0.946499 -0.084874 -12.071735 -54.274347 16.908992 -139.510500 87.823874 -146.426480 0.484484 -9.111702 4.581781 -0.047159 -0.187435 -0.049305
-0.556230 50.122492 35.884997 173.094637 -30.683831 -5.397674 7.911950 21.807388 7.762269 0.950769 3.319359 0.794916 1.550527 5.342354 1.308064 6.114399 18.444710 5.330784 0.901818 18.621034 3.524936 0.529045 -1.209211 6.169355 5.532960 -4.326741 -6.296411 20.510034 -33.680418 -21.969632 114.353354 -50.873176 -132.818778 1.273535 -9.910492 -17.989536 -11.899731 -0.710939 1.093165 1.772947 -5.531544 -2.051422 -103.785946 -62.167496 109.581277 10.837553 -23.533021 5.221575 1.009548 -50.861430 7.490957 -72.006102 83.446219 -60.311855 0.506384 -6.726965 -5.062959 -0.279787 0.961443 -0.102088 -12.039046 -54.257075 16.840769 -139.084731 87.816206 -146.017865 0.492374 -9.106630 4.605527 -0.044540 -0.185380 -0.045559
-0.557799 50.122571 35.881740 173.118632 -30.696532 -5.408105 7.896081 21.822307 7.770454 0.948197 3.319582 0.792180 1.540174 5.345977 1.319973 6.098531 18.451485 5.339373 0.913145 18.608003 3.489037 0.559009 -1.309756 6.075369 5.469949 -4.243482 -6.236159 20.258179 -33.320895 -21.714166 114.447410 -50.830211 -132.774985 1.228218 -10.093897 -17.913836 -11.896551 -0.728191 1.073003 1.769463 -5.538028 -2.068259 -103.824504 -62.194267 109.601018 10.909504 -23.661216 5.224867 1.014999 -50.848413 7.493515 -72.039146 83.440684 -60.353081 0.497133 -6.736440 -5.051917 -0.286513 0.975675 -0.099523 -12.052367 -54.243034 16.835588 -139.030587 87.810448 -145.972602 0.490386 -9.104174 4.614579 -0.040647 -0.182744 -0.040227
-0.560204 50.122847 35.879670 173.134813 -30.709142 -5.416217 7.868550 21.833839 7.782338 0.952184 3.325953 0.788824 1.536418 5.346308 1.318547 6.085532 18.457756 5.346828 0.917484 18.539458 3.437247 0.581025 -1.370228 6.001802 5.409521 -4.153546 -6.173243 19.983796 -32.929005 -21.453844 114.523570 -50.791596 -132.739678 1.160368 -10.275145 -17.753810 -11.896364 -0.741722 1.056765 1.760386 -5.543771 -2.084932 -103.871014 -62.224080 109.632692 10.995070 -23.818303 5.222798 1.027526 -50.836981 7.493903 -72.067169 83.432801 -60.387972 0.496021 -6.741400 -5.032080 -0.293147 0.986871 -0.105179 -12.063824 -54.228602 16.837305 -138.871365 87.805493 -145.826768 0.489733 -9.100184 4.625849 -0.042239 -0.175289 -0.032426
-0.560254 50.124376 35.878109 173.152052 -30.729978 -5.444727 7.858307 21.850316 7.806997 0.941804 3.325526 0.797278 1.539041 5.349782 1.314815 6.075856 18.463250 5.355354 0.918087 18.479779 3.391640 0.595848 -1.452725 5.929417 5.341751 -4.053978 -6.109133 19.693929 -32.503692 -21.189195 114.624689 -50.774613 -132.745161 1.088381 -10.458197 -17.477396 -11.905236 -0.773644 1.044718 1.760110 -5.525382 -2.100769 -103.932966 -62.251179 109.674247 11.089269 -24.000452 5.219252 1.057416 -50.816573 7.506683 -72.103307 83.407313 -60.408260 0.476936 -6.751073 -5.012001 -0.275880 1.003032 -0.104320 -12.101240 -54.202577 16.872221 -138.696307 87.793937 -145.663233 0.490228 -9.100201 4.634384 -0.042399 -0.172951 -0.028905
